<?xml version="1.0" encoding="utf-8" standalone="no"?>
<!DOCTYPE svg PUBLIC "-//W3C//DTD SVG 1.1//EN"
  "http://www.w3.org/Graphics/SVG/1.1/DTD/svg11.dtd">
<svg xmlns:xlink="http://www.w3.org/1999/xlink" width="255.42pt" height="34.812pt" viewBox="0 0 255.42 34.812" xmlns="http://www.w3.org/2000/svg" version="1.1">
 <metadata>
  <rdf:RDF xmlns:dc="http://purl.org/dc/elements/1.1/" xmlns:cc="http://creativecommons.org/ns#" xmlns:rdf="http://www.w3.org/1999/02/22-rdf-syntax-ns#">
   <cc:Work>
    <dc:type rdf:resource="http://purl.org/dc/dcmitype/StillImage"/>
    <dc:date>2026-08-30T11:45:42.751641</dc:date>
    <dc:format>image/svg+xml</dc:format>
    <dc:creator>
     <cc:Agent>
      <dc:title>Matplotlib v3.10.1, https://matplotlib.org/</dc:title>
     </cc:Agent>
    </dc:creator>
   </cc:Work>
  </rdf:RDF>
 </metadata>
 <defs>
  <style type="text/css">*{stroke-linejoin: round; stroke-linecap: butt}</style>
 </defs>
 <g id="figure_1">
  <g id="patch_1">
   <path d="M 0 34.812 
L 255.42 34.812 
L 255.42 0 
L 0 0 
L 0 34.812 
z
" style="fill: none"/>
  </g>
  <g id="axes_1">
   <g id="legend_1">
    <g id="line2d_1">
     <path d="M 17.994375 16.582641 
L 28.794375 16.582641 
L 39.594375 16.582641 
" style="fill: none; stroke: #2e86c1; stroke-width: 1.8; stroke-linecap: square"/>
     <defs>
      <path id="m2e0ee00325" d="M 0 2.75 
C 0.729309 2.75 1.428845 2.460243 1.944544 1.944544 
C 2.460243 1.428845 2.75 0.729309 2.75 0 
C 2.75 -0.729309 2.460243 -1.428845 1.944544 -1.944544 
C 1.428845 -2.460243 0.729309 -2.75 0 -2.75 
C -0.729309 -2.75 -1.428845 -2.460243 -1.944544 -1.944544 
C -2.460243 -1.428845 -2.75 -0.729309 -2.75 0 
C -2.75 0.729309 -2.460243 1.428845 -1.944544 1.944544 
C -1.428845 2.460243 -0.729309 2.75 0 2.75 
z
" style="stroke: #ffffff; stroke-width: 0.4"/>
     </defs>
     <g>
      <use xlink:href="#m2e0ee00325" x="28.794375" y="16.582641" style="fill: #2e86c1; stroke: #ffffff; stroke-width: 0.4"/>
     </g>
    </g>
    <g id="text_1">
     <text style="font-size: 9px; font-family: 'Arial'; text-anchor: start" x="46.794375" y="19.732641" transform="rotate(-0 46.794375 19.732641)">Precision</text>
    </g>
    <g id="line2d_2">
     <path d="M 101.808281 16.582641 
L 112.608281 16.582641 
L 123.408281 16.582641 
" style="fill: none; stroke: #e74c3c; stroke-width: 1.8; stroke-linecap: square"/>
     <defs>
      <path id="mdb17cfe03c" d="M -2.75 2.75 
L 2.75 2.75 
L 2.75 -2.75 
L -2.75 -2.75 
z
" style="stroke: #ffffff; stroke-width: 0.4; stroke-linejoin: miter"/>
     </defs>
     <g>
      <use xlink:href="#mdb17cfe03c" x="112.608281" y="16.582641" style="fill: #e74c3c; stroke: #ffffff; stroke-width: 0.4; stroke-linejoin: miter"/>
     </g>
    </g>
    <g id="text_2">
     <text style="font-size: 9px; font-family: 'Arial'; text-anchor: start" x="130.608281" y="19.732641" transform="rotate(-0 130.608281 19.732641)">Recall</text>
    </g>
    <g id="line2d_3">
     <path d="M 173.617031 16.582641 
L 184.417031 16.582641 
L 195.217031 16.582641 
" style="fill: none; stroke: #f39c12; stroke-width: 1.8; stroke-linecap: square"/>
     <defs>
      <path id="m148040e108" d="M 0 -2.75 
L -2.75 2.75 
L 2.75 2.75 
z
" style="stroke: #ffffff; stroke-width: 0.4; stroke-linejoin: miter"/>
     </defs>
     <g>
      <use xlink:href="#m148040e108" x="184.417031" y="16.582641" style="fill: #f39c12; stroke: #ffffff; stroke-width: 0.4; stroke-linejoin: miter"/>
     </g>
    </g>
    <g id="text_3">
     <text style="font-size: 9px; font-family: 'Arial'; text-anchor: start" x="202.417031" y="19.732641" transform="rotate(-0 202.417031 19.732641)">F1 score</text>
    </g>
   </g>
  </g>
 </g>
</svg>
